<svg width="320" height="320" viewBox="0 0 320 320" fill="none" xmlns="http://www.w3.org/2000/svg">
  <rect width="320" height="320" rx="72" fill="#090B10"/>
  <rect x="28" y="28" width="264" height="264" rx="56" fill="url(#paint0_linear_1_2)" fill-opacity="0.08" stroke="#232938" stroke-width="4"/>
  <path d="M91 113.2C91 95.4154 105.415 81 123.2 81H196.8C214.585 81 229 95.4154 229 113.2V126.8C229 144.585 214.585 159 196.8 159H123.2C105.415 159 91 144.585 91 126.8V113.2Z" fill="url(#paint1_linear_1_2)"/>
  <path d="M91 193.2C91 175.415 105.415 161 123.2 161H196.8C214.585 161 229 175.415 229 193.2V206.8C229 224.585 214.585 239 196.8 239H123.2C105.415 239 91 224.585 91 206.8V193.2Z" fill="#141923" stroke="#30384B" stroke-width="4"/>
  <path d="M121 120H199" stroke="#F7F3FF" stroke-width="16" stroke-linecap="round"/>
  <path d="M121 200H178" stroke="#E6E9F2" stroke-width="16" stroke-linecap="round"/>
  <circle cx="205" cy="200" r="18" fill="#8AB4FF"/>
  <defs>
    <linearGradient id="paint0_linear_1_2" x1="53" y1="41" x2="266" y2="279" gradientUnits="userSpaceOnUse">
      <stop stop-color="#A277FF"/>
      <stop offset="1" stop-color="#8AB4FF"/>
    </linearGradient>
    <linearGradient id="paint1_linear_1_2" x1="91" y1="81" x2="229" y2="159" gradientUnits="userSpaceOnUse">
      <stop stop-color="#643A71"/>
      <stop offset="0.67" stop-color="#BE6ED7"/>
      <stop offset="1" stop-color="#A277FF"/>
    </linearGradient>
  </defs>
</svg>
