<svg width="45" height="45" viewBox="0 0 45 45" fill="none" xmlns="http://www.w3.org/2000/svg">
<path d="M22.5 43C33.8218 43 43 33.8218 43 22.5C43 11.1782 33.8218 2 22.5 2C11.1782 2 2 11.1782 2 22.5C2 33.8218 11.1782 43 22.5 43Z" stroke="#CCFF00" stroke-width="4"/>
<path d="M19.0005 7C20.5801 7.0001 22.0814 7.3183 23.4386 7.8911C24.7115 8.4283 23.8821 10 22.5005 10C17.0751 10 12.397 13.0819 10.2514 17.5268C9.68749 18.6951 8.00049 18.7973 8.00049 17.5C8.00049 11.701 12.9254 7 19.0005 7Z" fill="#CCFF00"/>
</svg>
