<?xml version="1.0" encoding="UTF-8"?>
<!--Generator: Apple Native CoreSVG 360-->
<!DOCTYPE svg
PUBLIC "-//W3C//DTD SVG 1.1//EN"
       "http://www.w3.org/Graphics/SVG/1.1/DTD/svg11.dtd">
<svg version="1.1" xmlns="http://www.w3.org/2000/svg" xmlns:xlink="http://www.w3.org/1999/xlink" viewBox="0 0 18.9746 18.6426">
 <g>
  <rect height="18.6426" opacity="0" width="18.9746" x="0" y="0"/>
  <path d="M16.8164 6.17188L16.8164 6.99219C16.8164 7.51953 17.1973 7.90039 17.7051 7.90039C18.2324 7.90039 18.6133 7.50977 18.6133 6.99219L18.6133 1.58203C18.6133 0.585938 18.0273 0.00976562 17.0312 0.00976562L11.6113 0.00976562C11.0938 0.00976562 10.6934 0.380859 10.6934 0.908203C10.6934 1.42578 11.0938 1.78711 11.6113 1.78711L12.4316 1.78711L17.0996 1.51367ZM16.5332 0.957031L13.1348 4.16016L10.127 7.17773C9.95117 7.35352 9.85352 7.58789 9.85352 7.8418C9.85352 8.39844 10.2734 8.75977 10.8203 8.75977C11.0547 8.75977 11.2793 8.68164 11.4453 8.50586L14.4434 5.47852L17.6562 2.08008C18.4375 1.25 17.3926 0.15625 16.5332 0.957031ZM1.78711 12.4707L1.78711 11.6504C1.78711 11.1328 1.41602 10.7422 0.898438 10.7422C0.380859 10.7422 0 11.1426 0 11.6504L0 17.0703C0 18.0664 0.576172 18.6426 1.57227 18.6426L6.99219 18.6426C7.51953 18.6426 7.91016 18.2715 7.91016 17.7441C7.91016 17.2168 7.50977 16.8555 6.99219 16.8555L6.18164 16.8555L1.50391 17.1387ZM2.08008 17.6855L5.46875 14.4824L8.48633 11.4746C8.66211 11.2988 8.75 11.0645 8.75 10.8008C8.75 10.2539 8.33984 9.89258 7.7832 9.89258C7.54883 9.89258 7.33398 9.9707 7.16797 10.1465L4.16016 13.1738L0.947266 16.5625C0.175781 17.4023 1.2207 18.4863 2.08008 17.6855Z" fill="white" fill-opacity="0.85"/>
 </g>
</svg>
