<?xml version="1.0" encoding="UTF-8"?>
<!--Generator: Apple Native CoreSVG 360-->
<!DOCTYPE svg
PUBLIC "-//W3C//DTD SVG 1.1//EN"
       "http://www.w3.org/Graphics/SVG/1.1/DTD/svg11.dtd">
<svg version="1.1" xmlns="http://www.w3.org/2000/svg" xmlns:xlink="http://www.w3.org/1999/xlink" viewBox="0 0 22.8223 22.4512">
 <g>
  <rect height="22.4512" opacity="0" width="22.8223" x="0" y="0"/>
  <path d="M11.2305 22.4512C11.4844 22.4512 11.6895 22.3145 11.7578 21.8457L11.8555 21.0449C11.9141 20.7129 12.1094 20.5371 12.4609 20.498C12.8027 20.4395 13.0273 20.5859 13.1543 20.8789L13.457 21.6211C13.6523 22.0605 13.8867 22.1387 14.1309 22.0703C14.375 21.9922 14.541 21.8164 14.4727 21.3379L14.3652 20.5566C14.3164 20.2148 14.4824 20.0098 14.8242 19.8535C15.1172 19.7266 15.3906 19.7656 15.5957 20.0391L16.084 20.6738C16.3867 21.0742 16.6113 21.084 16.8457 20.9375C17.0801 20.8105 17.1777 20.6055 16.9922 20.1562L16.6895 19.4238C16.5527 19.0918 16.6406 18.8379 16.9336 18.6328C17.207 18.4375 17.4609 18.3984 17.7344 18.6133L18.3691 19.1016C18.75 19.3945 18.9941 19.3555 19.1797 19.1699C19.3555 18.9746 19.4043 18.7402 19.1016 18.3691L18.6133 17.7344C18.418 17.4707 18.4375 17.1875 18.6523 16.9043C18.8477 16.6504 19.1016 16.5527 19.4238 16.6895L20.166 16.9922C20.6152 17.1777 20.8203 17.0801 20.9473 16.8359C21.084 16.6113 21.0742 16.3867 20.6836 16.084L20.0586 15.5957C19.7949 15.3809 19.7461 15.1074 19.873 14.8047C19.9902 14.4922 20.2051 14.3457 20.5566 14.375L21.3574 14.4824C21.8262 14.541 22.0215 14.3848 22.0801 14.1309C22.1387 13.8867 22.0703 13.6523 21.6211 13.4668L20.8887 13.1641C20.5859 13.0469 20.459 12.8125 20.498 12.4316C20.5469 12.1094 20.7129 11.9043 21.0645 11.8555L21.8457 11.7578C22.3145 11.6895 22.4609 11.4844 22.4609 11.2305C22.4609 10.9668 22.3145 10.7715 21.8457 10.7031L21.0645 10.6055C20.7031 10.5469 20.5566 10.3418 20.498 10C20.459 9.66797 20.5762 9.43359 20.8887 9.29688L21.6309 9.00391C22.0703 8.80859 22.1484 8.57422 22.0801 8.33008C22.0117 8.08594 21.8262 7.91992 21.3477 7.97852L20.5664 8.08594C20.2246 8.13477 19.9707 7.95898 19.8633 7.65625C19.7363 7.31445 19.7754 7.08008 20.0586 6.86523L20.6836 6.37695C21.0742 6.07422 21.084 5.84961 20.957 5.625C20.8105 5.37109 20.5957 5.29297 20.166 5.45898L19.4238 5.78125C19.1016 5.91797 18.8379 5.80078 18.6426 5.53711C18.4473 5.27344 18.418 5.00977 18.623 4.72656L19.1113 4.10156C19.4043 3.7207 19.3652 3.47656 19.1797 3.29102C18.9941 3.11523 18.75 3.06641 18.3789 3.35938L17.7441 3.85742C17.4805 4.07227 17.1875 4.02344 16.9238 3.81836C16.6406 3.58398 16.5527 3.36914 16.6895 3.03711L16.9922 2.29492C17.1777 1.8457 17.0801 1.65039 16.8457 1.51367C16.5918 1.36719 16.3574 1.42578 16.084 1.77734L15.5957 2.41211C15.3809 2.67578 15.1172 2.72461 14.7949 2.58789C14.4922 2.4707 14.3262 2.25586 14.375 1.9043L14.4922 1.11328C14.541 0.644531 14.4141 0.458984 14.1309 0.390625C13.8574 0.322266 13.6328 0.439453 13.4668 0.839844L13.1738 1.58203C13.0469 1.89453 12.793 2.03125 12.4414 1.97266C12.0898 1.91406 11.9043 1.74805 11.8652 1.40625L11.7578 0.615234C11.6895 0.146484 11.4844 0.00976562 11.2402 0.00976562C10.9668 0.00976562 10.7617 0.146484 10.7031 0.605469L10.6055 1.41602C10.5469 1.73828 10.3613 1.93359 10 1.96289C9.6582 2.00195 9.42383 1.875 9.30664 1.58203L9.00391 0.839844C8.82812 0.449219 8.61328 0.3125 8.33008 0.390625C8.02734 0.46875 7.91992 0.693359 7.97852 1.12305L8.08594 1.9043C8.13477 2.25586 7.96875 2.48047 7.64648 2.59766C7.31445 2.72461 7.08008 2.67578 6.86523 2.41211L6.37695 1.77734C6.09375 1.41602 5.86914 1.37695 5.625 1.51367C5.38086 1.66016 5.2832 1.8457 5.46875 2.29492L5.77148 3.03711C5.89844 3.34961 5.82031 3.61328 5.54688 3.81836C5.27344 4.02344 5 4.05273 4.7168 3.84766L4.0918 3.34961C3.74023 3.08594 3.48633 3.08594 3.28125 3.29102C3.07617 3.50586 3.08594 3.75 3.34961 4.0918L3.84766 4.7168C4.0625 4.99023 4.01367 5.29297 3.80859 5.54688C3.57422 5.81055 3.36914 5.9082 3.02734 5.77148L2.29492 5.46875C1.88477 5.30273 1.65039 5.36133 1.51367 5.61523C1.34766 5.87891 1.42578 6.11328 1.77734 6.37695L2.40234 6.86523C2.66602 7.08008 2.71484 7.36328 2.58789 7.65625C2.44141 7.96875 2.23633 8.11523 1.89453 8.07617L1.10352 7.96875C0.634766 7.91992 0.439453 8.07617 0.380859 8.33008C0.322266 8.57422 0.390625 8.80859 0.839844 8.99414L1.57227 9.28711C1.88477 9.43359 2.02148 9.66797 1.95312 10.0098C1.89453 10.3516 1.75781 10.5469 1.39648 10.6055L0.615234 10.7031C0.136719 10.7715 0 10.9668 0 11.2305C0 11.4844 0.136719 11.6895 0.615234 11.7578L1.39648 11.8555C1.75781 11.9141 1.9043 12.1094 1.95312 12.4414C2.00195 12.7734 1.88477 13.0273 1.57227 13.1543L0.830078 13.457C0.390625 13.6523 0.3125 13.8867 0.380859 14.1309C0.449219 14.375 0.634766 14.541 1.11328 14.4727L1.88477 14.3652C2.22656 14.3262 2.44141 14.4824 2.59766 14.8145C2.71484 15.1074 2.66602 15.3906 2.40234 15.5957L1.77734 16.084C1.37695 16.3867 1.36719 16.6113 1.51367 16.8457C1.64062 17.0801 1.8457 17.1777 2.29492 17.002L3.02734 16.6797C3.34961 16.543 3.61328 16.6699 3.81836 16.9238C4.01367 17.168 4.04297 17.4512 3.83789 17.7246L3.33984 18.3594C3.05664 18.7402 3.0957 18.9746 3.28125 19.1699C3.4668 19.3457 3.71094 19.3945 4.08203 19.0918L4.70703 18.6035C4.98047 18.3984 5.24414 18.4375 5.54688 18.6426C5.82031 18.8477 5.9082 19.1016 5.77148 19.4238L5.46875 20.1562C5.2832 20.6055 5.38086 20.8105 5.625 20.9375C5.84961 21.084 6.07422 21.0742 6.37695 20.6738L6.86523 20.0488C7.08984 19.7656 7.34375 19.7266 7.63672 19.8535C7.94922 19.9805 8.125 20.2051 8.07617 20.5566L7.95898 21.3477C7.91992 21.8164 8.06641 22.002 8.33008 22.0703C8.57422 22.1289 8.80859 22.0605 8.99414 21.6211L9.28711 20.8789C9.4043 20.5859 9.63867 20.4492 10.0195 20.4883C10.3711 20.5273 10.5566 20.7129 10.5957 21.0547L10.7031 21.8359C10.7617 22.3145 10.9668 22.4512 11.2305 22.4512ZM5.56641 16.9336C4.07227 15.4785 3.1543 13.4668 3.1543 11.2305C3.1543 8.98438 4.07227 6.97266 5.56641 5.51758C6.16211 4.91211 6.80664 5.04883 7.23633 5.79102L9.88281 10.3516C10.2344 10.9766 10.2344 11.4941 9.87305 12.1289L7.24609 16.6602C6.81641 17.4121 6.17188 17.5391 5.56641 16.9336ZM11.1816 19.248C10.4492 19.248 9.72656 19.1406 9.04297 18.9453C8.21289 18.7207 8.00781 18.0957 8.44727 17.3438L11.0645 12.8125C11.4258 12.1875 11.8848 11.9238 12.6172 11.9238L17.8418 11.9238C18.7109 11.9238 19.1406 12.4121 18.9062 13.2422C18.0176 16.6992 14.9121 19.248 11.1816 19.248ZM11.1523 11.8066C10.8398 11.8066 10.5957 11.5527 10.5957 11.25C10.5957 10.9375 10.8398 10.6836 11.1523 10.6836C11.4648 10.6836 11.709 10.9375 11.709 11.25C11.709 11.5527 11.4648 11.8066 11.1523 11.8066ZM12.6172 10.5371C11.8848 10.5371 11.4258 10.2637 11.084 9.6582L8.4375 5.09766C8.01758 4.35547 8.21289 3.73047 9.04297 3.50586C9.72656 3.31055 10.4492 3.20312 11.1816 3.20312C14.9121 3.20312 18.0371 5.74219 18.9062 9.21875C19.1406 10.0488 18.7109 10.5371 17.8516 10.5371Z" fill="white" fill-opacity="0.85"/>
 </g>
</svg>
