<svg width="66" height="66" viewBox="0 0 66 66" fill="none" xmlns="http://www.w3.org/2000/svg">
<g clip-path="url(#clip0_8_24)">
<mask id="mask0_8_24" style="mask-type:alpha" maskUnits="userSpaceOnUse" x="0" y="0" width="66" height="66">
<path d="M58 0H8C3.58172 0 0 3.58172 0 8V58C0 62.4183 3.58172 66 8 66H58C62.4183 66 66 62.4183 66 58V8C66 3.58172 62.4183 0 58 0Z" fill="#D9D9D9"/>
</mask>
<g mask="url(#mask0_8_24)">
<path d="M66 -4V13.0262C66 13.8453 65.0699 14.3364 64.3926 13.8756C59.5423 10.5755 44.6691 1.13884 33 1C21.3401 0.861269 6.48106 10.4632 1.61882 13.8421C0.941775 14.3126 0 13.8221 0 12.9977V-4C0 -4.55228 0.447714 -5 0.999999 -5H65C65.5523 -5 66 -4.55228 66 -4Z" fill="#CCFF00"/>
<path d="M49.3243 54.7027L59.3243 45.5361C59.9657 44.9481 61 45.4031 61 46.2732V54.5316C61 54.8284 60.8682 55.1099 60.6402 55.2998L55.3598 59.7002C55.1318 59.8901 55 60.1716 55 60.4684V65C55 65.5523 54.5523 66 54 66H50C49.4477 66 49 65.5523 49 65V55.4399C49 55.1596 49.1176 54.8922 49.3243 54.7027Z" fill="#CCFF00"/>
<path d="M15.6757 54.7027L5.67572 45.5361C5.03432 44.9481 4 45.4031 4 46.2732V54.5316C4 54.8284 4.13182 55.1099 4.35982 55.2998L9.64018 59.7002C9.86818 59.8901 10 60.1716 10 60.4684V65C10 65.5523 10.4477 66 11 66H15C15.5523 66 16 65.5523 16 65V55.4399C16 55.1596 15.8824 54.8922 15.6757 54.7027Z" fill="#CCFF00"/>
<path d="M41 55H24C22.3431 55 21 56.3431 21 58V71C21 72.6569 22.3431 74 24 74H41C42.6569 74 44 72.6569 44 71V58C44 56.3431 42.6569 55 41 55Z" fill="#CCFF00"/>
</g>
</g>
<defs>
<clipPath id="clip0_8_24">
<rect width="66" height="66" fill="white"/>
</clipPath>
</defs>
</svg>
